<?xml version="1.0" standalone="no"?><!DOCTYPE svg PUBLIC "-//W3C//DTD SVG 1.1//EN" "http://www.w3.org/Graphics/SVG/1.1/DTD/svg11.dtd"><svg t="1494298136820" class="icon" style="" viewBox="0 0 1024 1024" version="1.1" xmlns="http://www.w3.org/2000/svg" p-id="2336" xmlns:xlink="http://www.w3.org/1999/xlink" width="32" height="32"><defs><style type="text/css"></style></defs><path d="M23.965957 0.726241 23.965957 1023.273759 23.965957 0.726241Z" p-id="2337"></path><path d="M47.205674 0.726241 47.205674 1023.273759 47.205674 0.726241Z" p-id="2338"></path><path d="M70.44539 0.726241 70.44539 1023.273759 70.44539 0.726241Z" p-id="2339"></path><path d="M93.685106 0.726241 93.685106 1023.273759 93.685106 0.726241Z" p-id="2340"></path><path d="M116.924823 0.726241 116.924823 1023.273759 116.924823 0.726241Z" p-id="2341"></path><path d="M140.164539 0.726241 140.164539 1023.273759 140.164539 0.726241Z" p-id="2342"></path><path d="M163.404255 0.726241 163.404255 1023.273759 163.404255 0.726241Z" p-id="2343"></path><path d="M186.643972 0.726241 186.643972 1023.273759 186.643972 0.726241Z" p-id="2344"></path><path d="M209.883688 0.726241 209.883688 1023.273759 209.883688 0.726241Z" p-id="2345"></path><path d="M233.123404 0.726241 233.123404 1023.273759 233.123404 0.726241Z" p-id="2346"></path><path d="M256.363121 0.726241 256.363121 1023.273759 256.363121 0.726241Z" p-id="2347"></path><path d="M279.602837 0.726241 279.602837 1023.273759 279.602837 0.726241Z" p-id="2348"></path><path d="M302.842553 0.726241 302.842553 1023.273759 302.842553 0.726241Z" p-id="2349"></path><path d="M326.08227 0.726241 326.08227 1023.273759 326.08227 0.726241Z" p-id="2350"></path><path d="M349.321986 0.726241 349.321986 1023.273759 349.321986 0.726241Z" p-id="2351"></path><path d="M372.561702 0.726241 372.561702 1023.273759 372.561702 0.726241Z" p-id="2352"></path><path d="M395.801418 0.726241 395.801418 1023.273759 395.801418 0.726241Z" p-id="2353"></path><path d="M419.041135 0.726241 419.041135 1023.273759 419.041135 0.726241Z" p-id="2354"></path><path d="M442.280851 0.726241 442.280851 1023.273759 442.280851 0.726241Z" p-id="2355"></path><path d="M465.520567 0.726241 465.520567 1023.273759 465.520567 0.726241Z" p-id="2356"></path><path d="M488.760284 0.726241 488.760284 1023.273759 488.760284 0.726241Z" p-id="2357"></path><path d="M512 0.726241 512 1023.273759 512 0.726241Z" p-id="2358"></path><path d="M535.239716 0.726241 535.239716 1023.273759 535.239716 0.726241Z" p-id="2359"></path><path d="M558.479433 0.726241 558.479433 1023.273759 558.479433 0.726241Z" p-id="2360"></path><path d="M581.719149 0.726241 581.719149 1023.273759 581.719149 0.726241Z" p-id="2361"></path><path d="M604.958865 0.726241 604.958865 1023.273759 604.958865 0.726241Z" p-id="2362"></path><path d="M628.198582 0.726241 628.198582 1023.273759 628.198582 0.726241Z" p-id="2363"></path><path d="M651.438298 0.726241 651.438298 1023.273759 651.438298 0.726241Z" p-id="2364"></path><path d="M674.678014 0.726241 674.678014 1023.273759 674.678014 0.726241Z" p-id="2365"></path><path d="M697.91773 0.726241 697.91773 1023.273759 697.91773 0.726241Z" p-id="2366"></path><path d="M721.157447 0.726241 721.157447 1023.273759 721.157447 0.726241Z" p-id="2367"></path><path d="M744.397163 0.726241 744.397163 1023.273759 744.397163 0.726241Z" p-id="2368"></path><path d="M767.636879 0.726241 767.636879 1023.273759 767.636879 0.726241Z" p-id="2369"></path><path d="M790.876596 0.726241 790.876596 1023.273759 790.876596 0.726241Z" p-id="2370"></path><path d="M814.116312 0.726241 814.116312 1023.273759 814.116312 0.726241Z" p-id="2371"></path><path d="M837.356028 0.726241 837.356028 1023.273759 837.356028 0.726241Z" p-id="2372"></path><path d="M860.595745 0.726241 860.595745 1023.273759 860.595745 0.726241Z" p-id="2373"></path><path d="M883.835461 0.726241 883.835461 1023.273759 883.835461 0.726241Z" p-id="2374"></path><path d="M907.075177 0.726241 907.075177 1023.273759 907.075177 0.726241Z" p-id="2375"></path><path d="M930.314894 0.726241 930.314894 1023.273759 930.314894 0.726241Z" p-id="2376"></path><path d="M953.55461 0.726241 953.55461 1023.273759 953.55461 0.726241Z" p-id="2377"></path><path d="M976.794326 0.726241 976.794326 1023.273759 976.794326 0.726241Z" p-id="2378"></path><path d="M1000.034043 0.726241 1000.034043 1023.273759 1000.034043 0.726241Z" p-id="2379"></path><path d="M0.726241 23.965957 1023.273759 23.965957 0.726241 23.965957Z" p-id="2380"></path><path d="M0.726241 47.205674 1023.273759 47.205674 0.726241 47.205674Z" p-id="2381"></path><path d="M0.726241 70.44539 1023.273759 70.44539 0.726241 70.44539Z" p-id="2382"></path><path d="M0.726241 93.685106 1023.273759 93.685106 0.726241 93.685106Z" p-id="2383"></path><path d="M0.726241 116.924823 1023.273759 116.924823 0.726241 116.924823Z" p-id="2384"></path><path d="M0.726241 140.164539 1023.273759 140.164539 0.726241 140.164539Z" p-id="2385"></path><path d="M0.726241 163.404255 1023.273759 163.404255 0.726241 163.404255Z" p-id="2386"></path><path d="M0.726241 186.643972 1023.273759 186.643972 0.726241 186.643972Z" p-id="2387"></path><path d="M0.726241 209.883688 1023.273759 209.883688 0.726241 209.883688Z" p-id="2388"></path><path d="M0.726241 233.123404 1023.273759 233.123404 0.726241 233.123404Z" p-id="2389"></path><path d="M0.726241 256.363121 1023.273759 256.363121 0.726241 256.363121Z" p-id="2390"></path><path d="M0.726241 279.602837 1023.273759 279.602837 0.726241 279.602837Z" p-id="2391"></path><path d="M0.726241 302.842553 1023.273759 302.842553 0.726241 302.842553Z" p-id="2392"></path><path d="M0.726241 326.08227 1023.273759 326.08227 0.726241 326.08227Z" p-id="2393"></path><path d="M0.726241 349.321986 1023.273759 349.321986 0.726241 349.321986Z" p-id="2394"></path><path d="M0.726241 372.561702 1023.273759 372.561702 0.726241 372.561702Z" p-id="2395"></path><path d="M0.726241 395.801418 1023.273759 395.801418 0.726241 395.801418Z" p-id="2396"></path><path d="M0.726241 419.041135 1023.273759 419.041135 0.726241 419.041135Z" p-id="2397"></path><path d="M0.726241 442.280851 1023.273759 442.280851 0.726241 442.280851Z" p-id="2398"></path><path d="M0.726241 465.520567 1023.273759 465.520567 0.726241 465.520567Z" p-id="2399"></path><path d="M0.726241 488.760284 1023.273759 488.760284 0.726241 488.760284Z" p-id="2400"></path><path d="M0.726241 512 1023.273759 512 0.726241 512Z" p-id="2401"></path><path d="M0.726241 535.239716 1023.273759 535.239716 0.726241 535.239716Z" p-id="2402"></path><path d="M0.726241 558.479433 1023.273759 558.479433 0.726241 558.479433Z" p-id="2403"></path><path d="M0.726241 581.719149 1023.273759 581.719149 0.726241 581.719149Z" p-id="2404"></path><path d="M0.726241 604.958865 1023.273759 604.958865 0.726241 604.958865Z" p-id="2405"></path><path d="M0.726241 628.198582 1023.273759 628.198582 0.726241 628.198582Z" p-id="2406"></path><path d="M0.726241 651.438298 1023.273759 651.438298 0.726241 651.438298Z" p-id="2407"></path><path d="M0.726241 674.678014 1023.273759 674.678014 0.726241 674.678014Z" p-id="2408"></path><path d="M0.726241 697.91773 1023.273759 697.91773 0.726241 697.91773Z" p-id="2409"></path><path d="M0.726241 721.157447 1023.273759 721.157447 0.726241 721.157447Z" p-id="2410"></path><path d="M0.726241 744.397163 1023.273759 744.397163 0.726241 744.397163Z" p-id="2411"></path><path d="M0.726241 767.636879 1023.273759 767.636879 0.726241 767.636879Z" p-id="2412"></path><path d="M0.726241 790.876596 1023.273759 790.876596 0.726241 790.876596Z" p-id="2413"></path><path d="M0.726241 814.116312 1023.273759 814.116312 0.726241 814.116312Z" p-id="2414"></path><path d="M0.726241 837.356028 1023.273759 837.356028 0.726241 837.356028Z" p-id="2415"></path><path d="M0.726241 860.595745 1023.273759 860.595745 0.726241 860.595745Z" p-id="2416"></path><path d="M0.726241 883.835461 1023.273759 883.835461 0.726241 883.835461Z" p-id="2417"></path><path d="M0.726241 907.075177 1023.273759 907.075177 0.726241 907.075177Z" p-id="2418"></path><path d="M0.726241 930.314894 1023.273759 930.314894 0.726241 930.314894Z" p-id="2419"></path><path d="M0.726241 953.55461 1023.273759 953.55461 0.726241 953.55461Z" p-id="2420"></path><path d="M0.726241 976.794326 1023.273759 976.794326 0.726241 976.794326Z" p-id="2421"></path><path d="M0.726241 1000.034043 1023.273759 1000.034043 0.726241 1000.034043Z" p-id="2422"></path><path d="M1023.273759 930.314894c0 92.958865-92.958865 92.958865-92.958865 92.958865l-265.955313-265.908834c-68.928999 50.104828-153.521566 79.991104-245.318445 79.991104-231.04926 0-418.314894-187.265634-418.314894-418.314894s187.265634-418.314894 418.314894-418.314894 418.314894 187.265634 418.314894 418.314894c0 91.796879-29.932755 176.389447-80.037583 245.364925l265.955313 265.908834zM419.041135 93.685106c-179.689487 0-325.356028 145.666542-325.356028 325.356028s145.666542 325.356028 325.356028 325.356028 325.356028-145.666542 325.356028-325.356028-145.666542-325.356028-325.356028-325.356028z" p-id="2423" fill="#666666"></path></svg>
