<?xml version="1.0" encoding="utf-8"?>
<!-- Generator: Adobe Illustrator 16.0.3, SVG Export Plug-In . SVG Version: 6.00 Build 0)  -->
<!DOCTYPE svg PUBLIC "-//W3C//DTD SVG 1.1//EN" "http://www.w3.org/Graphics/SVG/1.1/DTD/svg11.dtd">
<svg version="1.1" id="图层_1" xmlns="http://www.w3.org/2000/svg" xmlns:xlink="http://www.w3.org/1999/xlink" x="0px" y="0px"
	 width="297.64px" height="297.641px" viewBox="0 0 297.64 297.641" enable-background="new 0 0 297.64 297.641"
	 xml:space="preserve">
<g>
	<path fill="#FFB230" d="M86.613,200.312c-1.19-0.744-2.53-1.19-4.018-1.19c-2.083,0-4.018,0.744-5.506,2.232
		c-1.488,1.487-2.381,3.869-2.381,7.292c0,2.827,0.744,4.911,2.232,6.548c1.488,1.637,3.274,2.381,5.506,2.381
		c2.232,0,4.167-0.744,5.655-2.381s2.232-3.869,2.232-6.846c0-1.786-0.297-3.571-0.893-4.911
		C88.696,202.097,87.804,201.056,86.613,200.312z"/>
	<path fill="#FFB230" d="M133.64,199.27c-0.297,1.488-0.744,2.977-1.339,4.465l-2.53,6.696h7.739l-2.381-6.398
		C134.533,202.097,133.938,200.461,133.64,199.27z"/>
	<path fill="#FFB230" d="M194.955,200.312c-1.191-0.744-2.531-1.19-4.02-1.19c-2.082,0-4.018,0.744-5.506,2.232
		c-1.488,1.487-2.232,3.869-2.232,7.292c0,2.827,0.744,4.911,2.232,6.548s3.424,2.381,5.656,2.381s4.166-0.744,5.654-2.381
		s2.232-3.869,2.232-6.846c0-1.786-0.297-3.571-0.893-4.911C197.037,202.097,196.144,201.056,194.955,200.312z"/>
	<path fill="#FFB230" d="M267.876,0H29.764C13.394,0,0,13.394,0,29.764v238.112c0,16.37,13.394,29.764,29.764,29.764h238.113
		c16.369,0,29.764-13.394,29.764-29.764V29.764C297.64,13.394,284.246,0,267.876,0z M209.091,97.031
		c0-7.441,6.549-13.989,13.99-13.989c4.166,0,8.186,0,12.352,0c7.59-0.149,14.287,6.548,14.287,13.989v71.434
		c0.148,7.59-6.697,14.436-14.287,14.287c-4.166,0-8.186,0-12.352,0c-7.441,0-14.287-6.697-13.99-14.287
		C209.091,144.653,209.242,120.842,209.091,97.031z M66.225,216.533c-1.488,1.191-2.977,2.084-4.613,2.68
		c-1.637,0.595-3.274,0.893-4.911,0.893c-2.232,0-4.316-0.446-6.102-1.488c-1.786-1.042-3.274-2.381-4.167-4.167
		s-1.488-3.869-1.488-6.102s0.446-4.315,1.488-6.251c0.893-1.935,2.232-3.423,4.018-4.315c1.786-1.042,3.721-1.339,6.102-1.339
		c1.637,0,3.125,0.297,4.465,0.744c1.339,0.595,2.381,1.339,3.125,2.231c0.744,1.042,1.339,2.232,1.786,3.721l-2.679,0.744
		c-0.297-1.19-0.744-2.083-1.339-2.679c-0.595-0.744-1.339-1.19-2.232-1.637c-0.893-0.446-1.935-0.596-3.125-0.596
		c-1.339,0-2.53,0.149-3.572,0.596c-1.042,0.446-1.786,1.042-2.381,1.637c-0.595,0.744-1.19,1.488-1.488,2.232
		c-0.595,1.34-0.893,2.977-0.893,4.613c0,2.084,0.298,3.721,1.042,5.061c0.744,1.339,1.637,2.381,3.125,3.125
		c1.339,0.595,2.679,1.041,4.316,1.041c1.339,0,2.53-0.297,3.869-0.744c1.191-0.595,2.232-1.041,2.828-1.637v-4.315h-6.846v-2.679
		h9.673V216.533z M48.217,178.882c-0.744-0.148,0.298-0.893,2.381-3.125c3.125-3.273,4.018-8.929,7.887-12.649
		c5.209-4.763,10.864-2.53,13.543,1.786c5.804-3.572,9.227-7.144,7.887-10.864l1.935,0.298c-0.595,2.977-1.637,5.06-3.571,6.994
		c-1.488,1.488-3.423,2.828-5.804,4.315c2.232,4.167,1.935,9.822-3.274,12.799C61.462,183.346,51.343,179.179,48.217,178.882z
		 M92.119,214.598c-1.042,1.786-2.232,3.274-4.018,4.167c-1.637,1.042-3.571,1.488-5.506,1.488c-2.083,0-4.018-0.595-5.804-1.488
		c-1.637-1.041-2.977-2.381-3.87-4.315c-0.893-1.786-1.339-3.721-1.339-5.655c0-3.721,1.042-6.697,3.125-8.929
		c1.935-2.084,4.613-3.274,7.887-3.274c2.083,0,4.019,0.446,5.804,1.488c1.637,1.042,2.977,2.381,3.869,4.167
		c0.893,1.786,1.339,3.869,1.339,6.102C93.459,210.729,93.012,212.813,92.119,214.598z M119.502,216.533
		c-1.488,1.191-2.977,2.084-4.614,2.68c-1.488,0.595-3.274,0.893-4.911,0.893c-2.232,0-4.315-0.446-6.102-1.488
		c-1.786-1.042-3.274-2.381-4.167-4.167c-1.042-1.786-1.488-3.869-1.488-6.102s0.446-4.315,1.339-6.251
		c1.042-1.935,2.232-3.423,4.018-4.315c1.786-1.042,3.72-1.339,6.102-1.339c1.637,0,3.125,0.297,4.464,0.744
		c1.339,0.595,2.381,1.339,3.125,2.231c0.744,1.042,1.339,2.232,1.637,3.721l-2.679,0.744c-0.297-1.19-0.744-2.083-1.339-2.679
		c-0.446-0.744-1.19-1.19-2.232-1.637c-0.893-0.446-1.935-0.596-3.125-0.596c-1.339,0-2.53,0.149-3.572,0.596
		c-1.042,0.446-1.786,1.042-2.381,1.637c-0.595,0.744-1.042,1.488-1.488,2.232c-0.595,1.34-0.893,2.977-0.893,4.613
		c0,2.084,0.298,3.721,1.042,5.061c0.744,1.339,1.637,2.381,2.976,3.125c1.339,0.595,2.828,1.041,4.316,1.041
		c1.339,0,2.53-0.297,3.869-0.744c1.34-0.595,2.232-1.041,2.828-1.637v-4.315h-6.697v-2.679h9.673v8.631H119.502z M118.312,169.655
		c-2.381-7.888-4.911-15.924-7.292-23.96h-13.84v33.336c0,4.762-7.292,4.762-7.292,0v-33.188H48.069c-4.614,0-4.614-7.292,0-7.292
		h41.818v-30.954H69.499c-4.762,0-4.762-7.293,0-7.293h20.389V84.828H64.588c-3.721,0.148-6.697,2.976-6.697,6.846
		c0,0,0,23.811,0,25.745c0.149,3.721,3.274,5.805,6.697,5.805h13.691c4.613,0,4.613,7.292,0,7.292c-4.465,0-9.078,0-13.691,0
		c-7.292,0-13.989-5.507-13.989-13.245v-0.148c0-8.483,0-16.817,0-25.3c0-0.148,0-0.148,0-0.298c0-7.59,6.548-14.138,13.989-14.138
		c0.148,0,0.148,0,0.297,0h57.445c0,0,0.148,0,0.297,0c7.441,0,13.989,6.548,13.989,14.138v0.149c0,8.482,0,16.965,0,25.299v0.149
		c0,7.59-6.846,13.244-13.989,13.244c-4.613,0-9.078,0-13.691,0s-4.613-7.292,0-7.292h13.691c3.274,0,6.846-2.083,6.697-5.804
		c0-8.482,0-17.114,0-25.746c-0.148-3.721-2.827-6.846-6.697-6.846H97.328v15.626h21.43c4.762,0,4.762,7.293,0,7.293h-21.43v30.954
		h41.818c4.613,0,4.613,7.292,0,7.292h-20.239c0.446,1.637,6.697,22.025,6.697,22.025c1.339,4.167,5.208,7.59,9.673,7.739
		c4.613,0.148,4.613,7.44,0,7.292C127.39,182.602,120.544,177.096,118.312,169.655z M141.23,219.807l-2.679-6.994h-9.673
		l-2.53,6.994h-3.274l8.781-22.77h3.274l9.375,22.77H141.23z M174.566,216.533c-1.488,1.191-2.977,2.084-4.613,2.68
		c-1.488,0.595-3.125,0.893-4.762,0.893c-2.232,0-4.316-0.446-6.102-1.488c-1.787-1.042-3.275-2.381-4.168-4.167
		s-1.488-3.869-1.488-6.102s0.447-4.315,1.488-6.251c0.893-1.935,2.232-3.423,4.018-4.315c1.787-1.042,3.721-1.339,6.102-1.339
		c1.639,0,3.125,0.297,4.465,0.744c1.34,0.595,2.381,1.339,3.125,2.231c0.744,1.042,1.34,2.232,1.787,3.721l-2.68,0.744
		c-0.445-1.19-0.744-2.083-1.34-2.679c-0.445-0.744-1.189-1.19-2.082-1.637c-1.043-0.446-1.936-0.596-3.125-0.596
		c-1.34,0-2.531,0.149-3.572,0.596c-1.043,0.446-1.785,1.042-2.381,1.637c-0.596,0.744-1.191,1.488-1.488,2.232
		c-0.596,1.34-0.893,2.977-0.893,4.613c0,2.084,0.445,3.721,1.041,5.061c0.744,1.339,1.637,2.381,3.125,3.125
		c1.34,0.595,2.68,1.041,4.316,1.041c1.338,0,2.529-0.297,3.869-0.744c1.189-0.595,2.232-1.041,2.828-1.637v-4.315h-6.697v-2.679
		h9.672v8.631H174.566z M158.939,180.072c-1.041,4.614-8.035,2.68-6.994-1.935c5.805-27.829,11.607-55.658,17.412-83.488h-13.84
		c-4.762,0-4.762-7.292,0-7.292h15.477l1.488-7.144c1.043-4.613,8.037-2.679,6.994,1.936l-1.041,5.208h8.482
		c7.59-0.148,14.584,6.697,14.287,14.287c0,22.323,0,44.646,0,66.969c0.148,7.739-6.549,14.139-13.988,14.287
		c-4.764,0.148-4.764-7.144,0-7.292c3.719-0.149,6.695-2.977,6.695-6.846c0-22.473,0-44.944,0-67.268
		c-0.148-3.72-2.826-6.696-6.695-6.846h-10.27C170.845,123.074,164.892,151.648,158.939,180.072z M200.312,214.598
		c-0.893,1.786-2.232,3.274-4.02,4.167c-1.637,1.042-3.57,1.488-5.506,1.488c-2.082,0-4.166-0.595-5.803-1.488
		c-1.639-1.041-2.977-2.381-3.869-4.315c-0.895-1.786-1.34-3.721-1.34-5.655c0-3.721,1.041-6.697,2.977-8.929
		c2.082-2.084,4.613-3.274,7.887-3.274c2.084,0,4.018,0.446,5.656,1.488c1.637,1.042,2.975,2.381,3.869,4.167
		c0.893,1.786,1.338,3.869,1.338,6.102C201.8,210.729,201.353,212.813,200.312,214.598z M227.843,216.533
		c-1.488,1.191-2.977,2.084-4.613,2.68c-1.637,0.595-3.273,0.893-4.912,0.893c-2.23,0-4.314-0.446-6.102-1.488
		c-1.785-1.042-3.273-2.381-4.166-4.167s-1.34-3.869-1.34-6.102s0.447-4.315,1.34-6.251c0.893-1.935,2.232-3.423,4.018-4.315
		c1.637-1.042,3.721-1.339,5.953-1.339c1.637,0,3.125,0.297,4.465,0.744c1.34,0.595,2.381,1.339,3.125,2.231
		c0.744,1.042,1.34,2.232,1.637,3.721l-2.678,0.744c-0.299-1.19-0.744-2.083-1.34-2.679c-0.596-0.744-1.191-1.19-2.232-1.637
		c-0.893-0.446-1.936-0.596-3.125-0.596c-1.488,0-2.529,0.149-3.572,0.596c-1.041,0.446-1.785,1.042-2.381,1.637
		c-0.596,0.744-1.041,1.488-1.488,2.232c-0.596,1.34-0.893,2.977-0.893,4.613c0,2.084,0.297,3.721,1.041,5.061
		c0.744,1.339,1.787,2.381,3.125,3.125c1.34,0.595,2.828,1.041,4.316,1.041c1.34,0,2.529-0.297,3.869-0.744
		c1.34-0.595,2.232-1.041,2.828-1.637v-4.315h-6.697v-2.679h9.674v8.631H227.843z M249.572,219.807l-2.68-6.994h-9.674l-2.529,6.994
		h-3.125l8.779-22.77h3.275l9.375,22.77H249.572z"/>
	<path fill="#FFB230" d="M223.082,175.608c4.166,0,8.482,0,12.648,0c3.721-0.149,6.697-2.977,6.697-6.846V97.031
		c-0.148-3.87-2.977-6.697-6.697-6.846c-4.166,0-8.482,0-12.648,0c-3.721,0.148-6.697,2.976-6.846,6.846c0,23.96,0,47.771,0,71.731
		C216.384,172.483,219.361,175.608,223.082,175.608z"/>
	<path fill="#FFB230" d="M241.982,199.27c-0.299,1.488-0.744,2.977-1.34,4.465l-2.529,6.696h7.738l-2.381-6.398
		C242.875,202.097,242.279,200.461,241.982,199.27z"/>
</g>
</svg>
